<svg width="65" height="58" viewBox="0 0 65 58" fill="none" xmlns="http://www.w3.org/2000/svg">
<path fill-rule="evenodd" clip-rule="evenodd" d="M38.9156 0.95475C35.9066 6.73233 28.7644 21.3092 28.7862 21.6294C28.8364 22.3709 30.1607 24.4572 30.3684 24.1216C30.546 23.8342 36.0279 12.8122 38.2311 8.31254C38.735 7.28361 39.2512 6.47696 39.3783 6.51998C39.6144 6.5994 54.29 35.9561 54.6314 37.0317L54.8192 37.6229H48.3197C43.3016 37.6229 41.8215 37.7015 41.8248 37.9677C41.8273 38.1574 42.1105 38.8088 42.4541 39.4155L43.0788 40.5186L51.0496 40.592C55.4334 40.6322 59.1112 40.5702 59.222 40.4541C59.3329 40.338 54.9213 31.1882 49.4184 20.1214L39.4131 0L38.9156 0.95475ZM12.3878 26.9894C8.72299 34.3213 5.8 40.3956 5.89266 40.4883C6.11301 40.7086 19.5887 40.707 21.1984 40.4863C22.3363 40.3303 22.4858 40.2161 22.9921 39.116C23.2957 38.4558 23.4783 37.8499 23.3978 37.7694C23.3172 37.6888 20.3556 37.6229 16.8163 37.6229C13.2772 37.6229 10.3815 37.5642 10.3815 37.4922C10.3815 36.9815 19.0142 19.9921 19.2117 20.1142C19.3496 20.1995 22.3752 26.1593 25.9349 33.3585C29.4947 40.5578 32.5087 46.4448 32.6325 46.441C32.8939 46.4333 43.2023 25.6359 43.1932 25.1345C43.1827 24.5526 42.1353 22.4551 41.8551 22.4551C41.7079 22.4551 39.6265 26.4274 37.23 31.2825C34.8338 36.1376 32.7519 40.0696 32.6035 40.0203C32.4555 39.9709 29.4114 34.0816 25.8392 26.9332C22.2671 19.7847 19.2784 13.8736 19.1979 13.7975C19.1174 13.7214 16.0529 19.6578 12.3878 26.9894ZM5.25148 45.8646C2.70603 46.5229 0.412376 48.7297 0.0739944 50.8463C-0.210058 52.6231 0.315576 54.0583 1.79182 55.5342C2.84889 56.5913 3.43519 56.9269 4.93543 57.3329C7.14746 57.9316 8.78917 57.7794 10.8228 56.7866C11.5961 56.409 12.3098 56.1001 12.4085 56.1001C12.507 56.1001 12.5878 56.4804 12.5878 56.9449C12.5878 57.7319 12.649 57.7838 13.484 57.7032L14.3803 57.6169L14.4584 54.5086C14.5014 52.7991 14.4101 50.9309 14.2554 50.3573C13.8721 48.9335 12.3139 47.1905 10.7789 46.4691C9.39037 45.8163 6.61245 45.5124 5.25148 45.8646ZM21.9643 45.805C20.0377 46.4608 18.1199 48.1025 17.5683 49.5683C17.4076 49.9952 17.276 51.9417 17.276 53.8934C17.276 57.2273 17.3102 57.4528 17.8408 57.6211C18.9925 57.9868 19.2065 57.3776 19.2065 53.734V50.3319L20.2406 49.2479C22.3382 47.0488 25.6443 47.0295 27.8182 49.2035L28.8587 50.244V53.566C28.8587 56.981 29.0898 57.7548 30.1097 57.7548C30.9023 57.7548 31.1325 56.6324 31.009 53.3688C30.9114 50.7864 30.7729 49.9483 30.2898 49.0148C29.6122 47.7062 28.2476 46.5585 26.722 46.0141C25.7107 45.6531 22.7875 45.5246 21.9643 45.805ZM38.388 45.821C37.634 46.013 36.0045 47.0866 35.2839 47.8665C34.1101 49.1367 33.8228 50.3435 33.8228 54.0042C33.8228 57.2264 33.8581 57.4531 34.3876 57.6211C35.5116 57.9779 35.7532 57.3563 35.7532 54.1087C35.7532 50.5914 36.1173 49.5195 37.6578 48.5016C38.968 47.6356 41.3424 47.359 42.6477 47.9203C45.0531 48.9544 45.6813 50.3002 45.6813 54.4179C45.6813 57.2234 45.7221 57.4548 46.2461 57.6211C47.3892 57.984 47.6117 57.3707 47.6117 53.8572C47.6117 51.095 47.5199 50.3832 47.029 49.3389C45.919 46.9774 43.5862 45.6169 40.7173 45.6586C39.7313 45.6729 38.6831 45.746 38.388 45.821ZM54.8736 46.1142C52.0041 47.1398 50.3695 49.1784 50.3695 51.7312C50.3695 55.529 54.6582 58.3955 59.0138 57.5088C59.9473 57.3188 61.1216 56.9242 61.6233 56.6319C62.7697 55.9636 62.7264 55.9556 62.8303 56.8585C62.9037 57.4981 63.0474 57.6169 63.7448 57.6169H64.5722L64.6571 54.3076C64.7572 50.394 64.4996 49.3273 63.1202 47.944C61.0596 45.8773 57.6518 45.1211 54.8736 46.1142ZM10.5771 48.7363C12.9256 50.3639 12.9454 52.9976 10.6215 54.6082C8.22465 56.2692 4.97349 55.9606 3.10757 53.8953C1.92806 52.59 1.78714 51.3071 2.66632 49.8841C3.55295 48.4497 5.17481 47.7807 7.51425 47.8844C9.12094 47.9555 9.67139 48.1089 10.5771 48.7363ZM61.0596 48.8422C61.6263 49.2992 62.2391 50.1171 62.4214 50.6604C63.7286 54.5599 57.6818 57.3398 54.0004 54.5318C51.5689 52.6772 51.9848 49.8317 54.9199 48.2429C55.5432 47.9056 56.2753 47.8218 57.8881 47.9034C59.7714 47.9986 60.1525 48.1116 61.0596 48.8422Z" fill="black"/>
</svg>
